<svg xmlns="http://www.w3.org/2000/svg" width="48" height="48" viewBox="0 0 48 48">
  <path id="facebook" d="M24,48A24,24,0,0,1,7.029,7.029,24,24,0,0,1,40.97,40.97,23.842,23.842,0,0,1,24,48ZM18.341,19.714a.341.341,0,0,0-.341.339v4a.341.341,0,0,0,.341.339h2.422V37.652a.34.34,0,0,0,.339.339H25.95a.34.34,0,0,0,.339-.339V24.389H29.8a.339.339,0,0,0,.339-.311l.337-4a.334.334,0,0,0-.087-.258.34.34,0,0,0-.25-.111H26.289V16.88a1.205,1.205,0,0,1,1.2-1.2H30.2a.339.339,0,0,0,.338-.339v-4A.339.339,0,0,0,30.2,11H25.625a4.867,4.867,0,0,0-4.862,4.862v3.852Z" fill="#3a8bf4"/>
</svg>
